<svg xmlns="http://www.w3.org/2000/svg" viewBox="0 0 640 512"><path d="M255 262c6 6 16 6 23 0l11-12c6-6 6-16 0-22l-36-36 36-36c6-6 6-16 0-22l-11-12c-7-6-17-6-23 0l-58 59c-7 6-7 16 0 22l58 59zm96-12 11 12c7 6 17 6 23 0l58-59c7-6 7-16 0-22l-58-59c-6-6-16-6-23 0l-11 12c-6 6-6 16 0 22l36 36-36 36c-6 6-6 16 0 22zm273 166H382c-1 20-15 32-33 32h-61c-19 0-33-17-33-32H16c-9 0-16 7-16 16v16c0 35 29 64 64 64h512c35 0 64-29 64-64v-16c0-9-7-16-16-16zM576 48c0-26-22-48-48-48H112C86 0 64 22 64 48v336h512V48zm-64 272H128V64h384v256z"/></svg>